<svg xmlns="http://www.w3.org/2000/svg" width="392" height="64" viewBox="0 0 392 64" fill="none"><g clip-path="url(#clip0_1395_17383)"><path d="M246.809 29.015C246.809 29.015 243.441 29.8236 240.592 30.5061L236.261 31.4982C236.249 31.4982 236.232 31.4982 236.221 31.4982C236.221 30.3226 236.306 29.0838 236.586 27.9425C236.945 26.48 237.731 24.771 239.099 24.0197C240.586 23.2053 242.398 23.1078 243.971 23.7387C245.601 24.3867 246.347 25.9696 246.667 27.6099C246.758 28.0687 246.815 28.5275 246.86 28.992L246.809 29.015ZM258.104 31.4982C258.104 20.1256 250.986 15.2393 241.891 15.2393C231.611 15.2393 225.171 22.4024 225.171 31.5556C225.171 41.506 230.653 47.9866 242.455 47.9866C248.838 47.9866 252.451 46.8511 256.747 44.689L255.112 37.2391C251.835 38.7187 248.786 39.6249 244.718 39.6249C240.255 39.6249 237.714 37.9216 236.751 34.7386H257.819C257.99 33.8841 258.104 32.9148 258.104 31.4982Z" fill="#010051"></path><path d="M152.262 29.015C152.262 29.015 148.894 29.8236 146.045 30.5061L141.714 31.4982C141.703 31.4982 141.686 31.4982 141.674 31.4982C141.674 30.3226 141.76 29.0838 142.039 27.9425C142.398 26.48 143.184 24.771 144.552 24.0197C146.039 23.2053 147.852 23.1078 149.424 23.7387C151.054 24.3867 151.801 25.9696 152.12 27.6099C152.211 28.0687 152.268 28.5275 152.314 28.992L152.262 29.015ZM163.557 31.4982C163.557 20.1256 156.439 15.2393 147.344 15.2393C137.064 15.2393 130.624 22.4024 130.624 31.5556C130.624 41.506 136.107 47.9866 147.909 47.9866C154.291 47.9866 157.904 46.8511 162.201 44.689L160.565 37.2391C157.289 38.7187 154.24 39.6249 150.171 39.6249C145.709 39.6249 143.167 37.9216 142.204 34.7386H163.272C163.443 33.8841 163.557 32.9148 163.557 31.4982Z" fill="#010051"></path><path d="M126.202 6.8833H115.768V46.8454H126.202V6.8833Z" fill="#010051"></path><path d="M260.303 16.2601H271.262L273.57 23.3258C275.011 19.8388 278.26 15.354 284.021 15.354C291.931 15.354 296.222 19.3915 296.222 29.795V46.8511H285.263C285.263 43.2954 285.269 39.7454 285.275 36.1896C285.275 34.5608 285.246 32.9321 285.269 31.3033C285.286 29.8007 285.394 28.2465 284.597 26.8987C284.055 25.9869 283.172 25.3159 282.22 24.8571C280.288 23.928 278.191 23.9509 276.294 24.9488C275.826 25.1954 273.57 26.4227 273.57 26.9905V46.8511H262.611V24.5129L260.303 16.2601Z" fill="#010051"></path><path d="M304.508 24.2778H299.482V16.2601H304.508V11.2477L315.467 8.64966V16.2601H326.482V24.2778H315.467V33.2589C315.467 36.786 317.159 38.432 319.701 38.432C322.299 38.432 323.77 38.0879 325.969 37.3538L327.269 45.6525C324.277 46.9601 320.55 47.5852 316.76 47.5852C308.794 47.5852 304.502 43.7771 304.502 36.3846V24.2778H304.508Z" fill="#010051"></path><path d="M346.986 38.8852C350.998 38.8852 353.369 35.9833 353.369 31.3264C353.369 26.6695 351.112 23.9912 347.157 23.9912C343.145 23.9912 340.832 26.6637 340.832 31.4927C340.832 36.0464 343.088 38.8852 346.986 38.8852ZM347.1 15.0674C357.38 15.0674 364.891 21.548 364.891 31.6074C364.891 41.7241 357.38 47.809 346.986 47.809C336.649 47.809 329.303 41.5578 329.303 31.6074C329.303 21.548 336.592 15.0674 347.1 15.0674Z" fill="#010051"></path><path d="M215.353 16.1685C213.415 15.3656 211.221 15.0674 209.124 15.3713C208.058 15.5262 207.016 15.8359 206.047 16.3176C203.391 17.6367 201.323 20.6476 200.211 23.3316C199.482 20.2404 197.356 17.4646 194.25 16.1742C192.313 15.3713 190.119 15.0731 188.022 15.3771C186.956 15.5319 185.913 15.8416 184.945 16.3234C182.295 17.6367 180.232 20.6361 179.115 23.3144V23.1194L176.881 16.2717H165.922L168.23 24.5245V46.857H179.115V26.8931C179.155 26.744 179.639 26.4687 179.725 26.4056C181.001 25.4938 182.5 24.5532 184.095 24.4385C185.725 24.3181 187.332 25.1497 188.301 26.4515C188.404 26.5949 188.501 26.7383 188.592 26.8874C189.39 28.2351 189.281 29.7893 189.264 31.2919C189.247 32.9207 189.27 34.5495 189.27 36.1782C189.264 39.734 189.258 43.284 189.258 46.8398H200.217V29.7893C200.217 29.7033 200.217 29.6173 200.217 29.537V26.9046C200.24 26.7612 200.741 26.4745 200.832 26.4114C202.109 25.4995 203.608 24.5589 205.203 24.4442C206.833 24.3238 208.44 25.1554 209.409 26.4573C209.512 26.6006 209.608 26.744 209.7 26.8931C210.497 28.2409 210.389 29.7951 210.372 31.2977C210.355 32.9264 210.378 34.5552 210.378 36.184C210.372 39.7397 210.366 43.2898 210.366 46.8455H221.325V29.7893C221.325 24.7883 220.613 18.3478 215.353 16.1685Z" fill="#010051"></path><path d="M390.808 15.354C385.047 15.354 381.804 19.8446 380.357 23.3258L378.049 16.2601H367.09L369.398 24.5129V46.8454H380.357V26.2105C381.918 25.9353 390.392 27.5067 391.999 28.0974V15.3941C391.612 15.3712 391.218 15.354 390.808 15.354Z" fill="#010051"></path><path d="M100.051 29.015C100.051 29.015 96.6834 29.8236 93.834 30.5061L89.5031 31.4982C89.4917 31.4982 89.4746 31.4982 89.4632 31.4982C89.4632 30.3226 89.5486 29.0838 89.8279 27.9425C90.1869 26.48 90.9733 24.771 92.341 24.0197C93.8283 23.2053 95.6405 23.1078 97.2133 23.7387C98.8432 24.3867 99.5897 25.9696 99.9088 27.6099C100 28.0687 100.057 28.5275 100.103 28.992L100.051 29.015ZM111.346 31.4982C111.346 20.1256 104.228 15.2393 95.1333 15.2393C84.8529 15.2393 78.4135 22.4024 78.4135 31.5556C78.4135 41.506 83.8956 47.9866 95.6975 47.9866C102.08 47.9866 105.693 46.8511 109.99 44.689L108.354 37.2391C105.078 38.7187 102.029 39.6249 97.9599 39.6249C93.4978 39.6249 90.9562 37.9216 89.9931 34.7386H111.061C111.232 33.8841 111.346 32.9148 111.346 31.4982Z" fill="#010051"></path><path d="M31.3028 0.5C14.013 0.5 0 14.6026 0 32.0029C0 49.3974 14.013 63.5057 31.3028 63.5057C48.5926 63.5057 62.6056 49.4031 62.6056 32.0029C62.5999 14.6026 48.5869 0.5 31.3028 0.5ZM23.4785 45.1248H18.2642V18.8752H23.4785V45.1248ZM44.3413 45.1248H28.6928V39.8772H44.3413V45.1248ZM44.3413 34.6238H28.6928V29.3762H44.3413V34.6238ZM44.3413 24.1228H28.6928V18.8752H44.3413V24.1228Z" fill="#010051"></path></g><defs><clipPath id="clip0_1395_17383"><rect width="392" height="63" fill="white" transform="translate(0 0.5)"></rect></clipPath></defs></svg>